<?xml version="1.0" encoding="utf-8"?>
<!-- Generator: Adobe Illustrator 19.0.0, SVG Export Plug-In . SVG Version: 6.00 Build 0)  -->
<svg version="1.1" id="图层_3" xmlns="http://www.w3.org/2000/svg" xmlns:xlink="http://www.w3.org/1999/xlink" x="0px" y="0px"
	 viewBox="0 0 24 24" style="enable-background:new 0 0 24 24;" xml:space="preserve">
<style type="text/css">
	.st0{fill:#FFDE3E;}
	.st1{fill:#FFC545;}
	.st2{fill:#FFE757;}
</style>
<g id="XMLID_1_">
	<circle id="XMLID_31_" class="st0" cx="12" cy="12" r="12"/>
	<circle id="XMLID_33_" class="st1" cx="12" cy="12" r="8.9"/>
	<path id="XMLID_35_" class="st2" d="M12.6,13.9c1.9-2.5,5.2-4.4,5.2-4.4c0-0.8,0-1.7-0.2-2.5c-0.1-0.6-0.5-0.6-0.5-0.6
		c-3.5-0.2-5.9-0.2-7.5-0.1c0,0.3-0.2,0.5-0.5,0.5c-0.3,0-0.5-0.2-0.5-0.4C7.5,6.5,7,6.6,7,6.6S6.7,6.7,6.6,7C6.5,7.3,6.3,9,6.3,9
		c1.5,0,3.1,0.1,4.6,0.5c1.5,0.4,0.6,1.4,0.6,1.4c-1.6,1.7-5,3.6-5.2,3.7c0.1,1,0.2,1.5,0.3,2c0.2,0.7,1.2,0.8,1.2,0.8
		c3.7,0.6,8.8,0,9.3-0.2c0.1,0,0.3-0.1,0.4-0.4c0.2-0.9,0.2-1.4,0.2-1.8c-1.1,0.3-3.5,0.3-3.5,0.3C11.9,15.3,12.3,14.4,12.6,13.9"/>
</g>
</svg>
